<?xml version="1.0" encoding="utf-8"?>
<!-- Generator: Adobe Illustrator 19.0.0, SVG Export Plug-In . SVG Version: 6.00 Build 0)  -->
<svg version="1.1" id="Layer_1" xmlns="http://www.w3.org/2000/svg" xmlns:xlink="http://www.w3.org/1999/xlink" x="0px" y="0px"
	 viewBox="0 0 360 240" style="enable-background:new 0 0 360 240;" xml:space="preserve">
<g id="XMLID_5_">
	<g id="XMLID_22_" style="opacity:0.15;">
		<path id="XMLID_24_" d="M125.7,73.3c-8.9,34.8-36.4,63-61.4,63s-38-28.2-29.1-63s36.4-63,61.4-63S134.6,38.5,125.7,73.3z"/>
	</g>
	<g id="XMLID_19_">
		<path id="XMLID_21_" style="fill:#C0C0C0;" d="M118.7,68.3c-8.9,34.8-36.4,63-61.4,63s-38-28.2-29.1-63s36.4-63,61.4-63
			S127.6,33.5,118.7,68.3z"/>
	</g>
</g>
<g id="XMLID_4_">
	<path id="XMLID_31_" style="fill:#E0E0E0;" d="M71.4,72.7c-5.6-5.4-10-9-7.1-20.4c1.9-7.3,7-14.2,16-15.4l1.3-5.2h4.8l-1.3,5.2
		c7.5,1.1,9.9,5.8,8.7,11.5c-0.4,1.7-0.5,3.5-1.1,5.2h-8.3c1.1-4.5,1.3-7.3-1.8-8.4l-4.2,16.5c6.3,4.4,10.5,10.6,8.4,19.2
		c-2.8,11.5-8,17.1-17.8,18.7l-2.3,9h-4.8l2.2-8.8c-9.7-1-11-9.1-7.7-19.9h8.5c-1.3,5.4-2.8,10,1.6,11.4L71.4,72.7z M71.1,91.2
		c2.6-0.8,5.1-3.2,6.3-7.8c1.1-4.2-0.5-7.6-2-9L71.1,91.2z M78.5,45.1c-2.6,0.4-4.6,3.2-5.4,6.2c-1.1,4.2,0.3,6.2,1.6,8.6L78.5,45.1
		z"/>
</g>
<g id="XMLID_1_">
	<path id="XMLID_18_" d="M168.9,75l1.5-5.5c2-7.4,0.3-11.2-3.5-11.2c-6.3-0.1-8.7,3.3-10.3,9l-11.6,42.8c-1.3,4.8-0.1,7.7,5.2,7.7
		c6.9,0,9.4-7.2,10.8-12.5l2.1-7.9l20.3,0l-2.8,10.6c-4,14.9-15.3,25.3-36.1,25.3c-18.7,0-23.3-9.9-18.6-27.6l9.5-35.6
		c5-18.8,16-27.6,34.6-27.6c17.3,0,25.7,7.4,21,25.1l-1.9,7.3L168.9,75z"/>
	<path id="XMLID_23_" d="M244.8,103.7c-5.2,19.5-14.8,29.7-35.3,29.7c-20.5,0-25-10.2-19.8-29.7l9.4-35.2
		c4.5-16.6,16.9-25.9,34.6-25.9c17.8,0,24.9,9.2,20.4,25.9L244.8,103.7z M233.5,69.9c1.4-5.3,2.7-11.7-4-11.7
		c-6.5,0-9,6.4-10.4,11.7l-9.5,35.6c-1.3,5-2.5,12.4,4.1,12.4c6.6,0,9-7.4,10.4-12.4L233.5,69.9z"/>
	<path id="XMLID_27_" d="M246.6,131.3l23.2-86.6l20.3,0l-23.2,86.6L246.6,131.3z"/>
	<path id="XMLID_29_" d="M307.3,82.8L307,83l-11.1,48.3l-19.3,0l23.2-86.6l20.9,0l2.7,48.4h0.3l11-48.4l19.3,0l-23.2,86.6l-20.8,0
		L307.3,82.8z"/>
</g>
<g id="XMLID_2_">
	<path id="XMLID_6_" d="M62.7,204.1h0.2l22.6-60.7l19.3,0L67.2,230l-22.9,0l10.1-61h-0.2l-23,61l-22.5,0l8.6-86.6l19.6,0l-10.2,60.8
		L27,204l24.4-60.6l19.6,0L62.7,204.1z"/>
	<path id="XMLID_8_" d="M75.9,230l42.1-86.6l24.5,0l-4.4,86.6l-20.5,0l1.6-16.9h-15.9L96.4,230L75.9,230z M126.1,159.1h-0.2
		l-16.3,38.8h11.8L126.1,159.1z"/>
	<path id="XMLID_11_" d="M152.7,143.4l52.6,0l-4.6,17.3l-16.4,0L165.7,230l-20.3,0l18.6-69.3l-15.9,0L152.7,143.4z"/>
	<path id="XMLID_13_" d="M236,173.6l1.5-5.5c2-7.4,0.3-11.2-3.5-11.2c-6.3-0.1-8.7,3.3-10.3,9l-11.6,42.8c-1.3,4.8-0.1,7.7,5.2,7.7
		c6.9,0,9.4-7.2,10.8-12.5l2.1-7.9l20.3,0l-2.8,10.6c-4,14.9-15.3,25.3-36.1,25.3c-18.7,0-23.3-9.9-18.6-27.6l9.5-35.6
		c5-18.8,16-27.6,34.6-27.6c17.3,0,25.7,7.4,21,25.1l-1.9,7.3L236,173.6z"/>
	<path id="XMLID_16_" d="M250.7,230l23.2-86.6l20.3,0l-8.9,33.3l14.1,0l8.9-33.3l20.3,0l-23.2,86.6l-20.3,0l9.6-36l-14.1,0l-9.6,36
		L250.7,230z"/>
</g>
<g id="XMLID_3_">
</g>
<g id="XMLID_35_">
</g>
<g id="XMLID_36_">
</g>
<g id="XMLID_37_">
</g>
<g id="XMLID_38_">
</g>
<g id="XMLID_39_">
</g>
<g id="XMLID_40_">
</g>
<g id="XMLID_41_">
</g>
<g id="XMLID_42_">
</g>
<g id="XMLID_43_">
</g>
<g id="XMLID_44_">
</g>
<g id="XMLID_45_">
</g>
<g id="XMLID_46_">
</g>
<g id="XMLID_47_">
</g>
<g id="XMLID_48_">
</g>
</svg>
